<?xml version="1.0" encoding="iso-8859-1"?>
<!-- Generator: Adobe Illustrator 19.0.0, SVG Export Plug-In . SVG Version: 6.00 Build 0)  -->
<svg version="1.1" id="Capa_1" xmlns="http://www.w3.org/2000/svg" xmlns:xlink="http://www.w3.org/1999/xlink" x="0px" y="0px"
	 viewBox="0 0 505.589 505.589" style="enable-background:new 0 0 505.589 505.589;" xml:space="preserve">
<g>
	<g>
		<g>
			<polygon points="115.652,503.076 252.795,503.076 389.938,503.076 389.938,484.79 115.652,484.79 			"/>
			<path d="M401.813,41.281c-4.569-3.518-9.766-6.136-15.313-7.714l-53.928-15.411c-1.495-0.428-2.857-1.23-3.955-2.33
				L315.304,2.514c-19.258,10.252-40.694,15.736-62.509,15.991c-21.815-0.255-43.251-5.739-62.509-15.991l-13.313,13.312
				c-1.099,1.101-2.46,1.903-3.955,2.331L119.09,33.567c-5.547,1.578-10.743,4.196-15.313,7.714L0,121.112l62.866,94.313
				l17.476-13.983l-45.44-68.151c-2.741-4.199-1.588-9.823,2.585-12.605s9.807-1.683,12.629,2.462l44.557,66.827l6.122-4.898
				c2.745-2.196,6.506-2.623,9.675-1.1s5.183,4.728,5.183,8.243v274.286h274.286V192.219c0-3.516,2.014-6.72,5.183-8.243
				c3.168-1.523,6.929-1.095,9.675,1.1l6.122,4.898l44.556-66.827c2.812-4.174,8.467-5.291,12.655-2.499s5.331,8.442,2.56,12.642
				l-45.44,68.151l17.476,13.983l62.866-94.313L401.813,41.281z"/>
		</g>
	</g>
</g>
<g>
</g>
<g>
</g>
<g>
</g>
<g>
</g>
<g>
</g>
<g>
</g>
<g>
</g>
<g>
</g>
<g>
</g>
<g>
</g>
<g>
</g>
<g>
</g>
<g>
</g>
<g>
</g>
<g>
</g>
</svg>
