<svg id="Glyph" height="512" viewBox="0 0 512 512" width="512" xmlns="http://www.w3.org/2000/svg"><path d="m392 64a87.115 87.115 0 0 0 -31.683 5.878 126.93 126.93 0 0 1 19.08 39.994 8 8 0 1 1 -15.422 4.256 112.016 112.016 0 0 0 -187.237-49.244 103.994 103.994 0 0 1 47.262 87.116 8 8 0 0 1 -16 0 88 88 0 1 0 -105.771 86.206 8 8 0 0 1 6.281 6.5l26.251 155.294h48.647l-7.387-103.43h.008c-.014-.189-.029-.377-.029-.569a8 8 0 0 1 15.971-.569h.008l7.47 104.568h48.551v-88a8 8 0 0 1 16 0v88h48.551l7.47-104.57h.008a8 8 0 0 1 15.971.57c0 .192-.015.38-.029.569h.008l-7.387 103.431h48.647l26.251-155.291a8 8 0 0 1 6.281-6.5 88.01 88.01 0 0 0 -17.771-174.209z"/><path d="m136 416h240v64h-240z"/></svg>