<?xml version="1.0" encoding="iso-8859-1"?>
<!-- Generator: Adobe Illustrator 19.0.0, SVG Export Plug-In . SVG Version: 6.00 Build 0)  -->
<svg version="1.1" id="Capa_1" xmlns="http://www.w3.org/2000/svg" xmlns:xlink="http://www.w3.org/1999/xlink" x="0px" y="0px"
	 viewBox="0 0 384 384" style="enable-background:new 0 0 384 384;" xml:space="preserve">
<g>
	<g>
		<path d="M80,304H48l64,64v-32C112,318.354,97.644,304,80,304z"/>
	</g>
</g>
<g>
	<g>
		<path d="M320,0H64C46.326,0,32,14.326,32,32v256h48c26.51,0,48,21.49,48,48v48h192c17.674,0,32-14.326,32-32V32
			C352,14.326,337.674,0,320,0z M192,256H96v-32h96V256z M288,192H96v-32h192V192z M288,128H96V96h192V128z"/>
	</g>
</g>
<g>
</g>
<g>
</g>
<g>
</g>
<g>
</g>
<g>
</g>
<g>
</g>
<g>
</g>
<g>
</g>
<g>
</g>
<g>
</g>
<g>
</g>
<g>
</g>
<g>
</g>
<g>
</g>
<g>
</g>
</svg>
