<svg id="whatsapp-icon-seeklogo.com" xmlns="http://www.w3.org/2000/svg" xmlns:xlink="http://www.w3.org/1999/xlink" width="47.137" height="47.348" viewBox="0 0 47.137 47.348">
  <defs>
    <linearGradient id="linear-gradient" x1="0.5" y1="1" x2="0.5" gradientUnits="objectBoundingBox">
      <stop offset="0" stop-color="#20b038"/>
      <stop offset="1" stop-color="#60d66a"/>
    </linearGradient>
  </defs>
  <path id="Path_7133" data-name="Path 7133" d="M40.269,6.881A23.472,23.472,0,0,0,3.33,35.19L0,47.348l12.442-3.262a23.454,23.454,0,0,0,11.215,2.856h.01a23.471,23.471,0,0,0,16.6-40.061Zm-16.6,36.1h-.008a19.483,19.483,0,0,1-9.929-2.719l-.713-.422L5.635,41.774l1.971-7.2-.464-.738a19.508,19.508,0,1,1,16.525,9.139Z" fill="#e0e0e0"/>
  <path id="Path_7134" data-name="Path 7134" d="M27.875,66.3l3.18-11.613A22.419,22.419,0,1,1,50.481,65.915h-.01a22.411,22.411,0,0,1-10.712-2.727L27.875,66.3Z" transform="translate(-26.818 -20.279)" fill="url(#linear-gradient)"/>
  <rect id="Rectangle_1472" data-name="Rectangle 1472" width="26.763" height="25.137" transform="translate(10.271 11.043)" fill="none" opacity="0.08"/>
  <path id="Path_7135" data-name="Path 7135" d="M313.489,324.023c-.449-.947-.923-.966-1.35-.982-.35-.014-.75-.013-1.15-.013a2.261,2.261,0,0,0-1.6.711,6.238,6.238,0,0,0-2.1,4.741c0,2.8,2.15,5.5,2.45,5.879s4.151,6.3,10.25,8.58c5.069,1.894,6.1,1.517,7.2,1.422s3.55-1.375,4.05-2.7a4.517,4.517,0,0,0,.35-2.7c-.15-.237-.55-.379-1.15-.663s-3.55-1.66-4.1-1.849-.95-.284-1.35.285-1.549,1.849-1.9,2.228-.7.427-1.3.143a16.63,16.63,0,0,1-4.825-2.821,17.292,17.292,0,0,1-3.338-3.936c-.35-.568-.038-.876.263-1.16.269-.255.6-.664.9-1a3.862,3.862,0,0,0,.6-.948,1,1,0,0,0-.05-1C315.189,327.958,314.023,325.147,313.489,324.023Z" transform="translate(-295.828 -310.335)" fill="#fff" fill-rule="evenodd"/>
  <path id="Path_7136" data-name="Path 7136" d="M46.816,6.917A23.208,23.208,0,0,0,10.292,34.908L7,46.929,19.3,43.7a23.19,23.19,0,0,0,11.089,2.824h.01A23.207,23.207,0,0,0,46.816,6.917ZM30.4,42.609h-.008a19.264,19.264,0,0,1-9.817-2.688l-.7-.418-7.3,1.914L14.521,34.3l-.459-.729A19.288,19.288,0,1,1,30.4,42.609Z" transform="translate(-6.735 -0.11)" fill="#fff"/>
</svg>
